<svg width="30" height="29" viewBox="0 0 30 29" fill="none" xmlns="http://www.w3.org/2000/svg">
<path d="M15.3647 28.9374C23.3466 28.9374 29.8173 22.4668 29.8173 14.4849C29.8173 6.50297 23.3466 0.0323486 15.3647 0.0323486C7.3828 0.0323486 0.91217 6.50297 0.91217 14.4849C0.91217 22.4668 7.3828 28.9374 15.3647 28.9374Z" fill="#45BAFF" stroke="#95D0FF" stroke-width="0.0110592" stroke-miterlimit="1.5" stroke-linecap="round" stroke-linejoin="round"/>
<path d="M13.0856 16.6932L12.7321 16.1681C12.5364 15.8776 12.2083 15.703 11.858 15.703C11.5079 15.703 11.1799 15.8775 10.9842 16.1678L7.73211 20.9934C7.68296 21.0663 7.65668 21.1522 7.65668 21.2401C7.65668 21.4822 7.85584 21.6814 8.09792 21.6815L10.5814 21.6829C10.3489 21.2441 10.3774 20.711 10.6554 20.2996L13.0856 16.6932Z" fill="#003D60"/>
<path d="M22.9659 20.7092L18.3501 13.8551C18.1657 13.5795 17.8936 13.3738 17.5781 13.2716V10.7566C18.0453 10.6383 18.5399 10.6926 18.9703 10.9095C19.7312 11.3153 21.1911 11.1966 21.8329 11.1189C22.0128 11.0968 22.1493 10.942 22.1487 10.7608V8.09133C22.1487 8.09088 22.1487 8.09046 22.1487 8.09001C22.1487 7.89284 21.9865 7.73061 21.7893 7.73061C21.7573 7.73061 21.7254 7.73489 21.6946 7.74335C21.1233 7.89938 20.1256 8.06148 19.3677 7.59339C18.2418 6.89795 16.8919 7.59339 16.8919 7.59339V7.59634C16.7388 7.67647 16.6423 7.83545 16.6419 8.00825V13.2713C16.3263 13.3734 16.0541 13.5789 15.8695 13.8546L14.6599 15.6494C15.3054 15.5912 15.9461 15.8108 16.4202 16.2527C16.8366 16.6098 17.3643 16.8115 17.9127 16.8232C18.0889 16.8329 18.2286 16.9806 18.2286 17.1571C18.2286 17.3405 18.0777 17.4914 17.8943 17.4914C17.8941 17.4914 17.8939 17.4914 17.8936 17.4914C17.8871 17.4914 17.8806 17.4911 17.8741 17.4909C17.1824 17.468 16.5183 17.212 15.9902 16.7647C15.0676 15.9898 14.3211 16.376 14.0143 16.6073L11.2542 20.7031C11.1845 20.8065 11.1472 20.9284 11.1472 21.0532C11.1472 21.3967 11.4298 21.6795 11.7734 21.6796L22.4459 21.6856C22.446 21.6856 22.4461 21.6856 22.4462 21.6856C22.7899 21.6856 23.0727 21.4028 23.0727 21.0591C23.0727 20.9345 23.0355 20.8126 22.9659 20.7092Z" fill="#003D60"/>
</svg>
