<svg width="30" height="29" viewBox="0 0 30 29" fill="none" xmlns="http://www.w3.org/2000/svg">
<path d="M14.8217 28.9374C22.8036 28.9374 29.2743 22.4668 29.2743 14.4849C29.2743 6.50297 22.8036 0.0323486 14.8217 0.0323486C6.8398 0.0323486 0.369171 6.50297 0.369171 14.4849C0.369171 22.4668 6.8398 28.9374 14.8217 28.9374Z" fill="#FF635F" stroke="#FF9B95" stroke-width="0.0110592" stroke-miterlimit="1.5" stroke-linecap="round" stroke-linejoin="round"/>
<path d="M18.8866 7.71631H8.70718L8.96766 9.20381C9.24733 10.8012 10.4756 12.0203 12.014 12.327C12.3962 13.2051 13.1229 13.8986 14.0239 14.2361C14.0624 14.7128 14.4121 15.1014 14.8697 15.1988V17.2428C14.3963 17.3451 14.0393 17.7593 14.0244 18.2597H12.7294C12.4976 18.2597 12.3097 18.4476 12.3097 18.6794V21.2535H18.2973V18.9743C18.2973 18.5797 17.9774 18.2597 17.5827 18.2597H16.5827C16.5678 17.7594 16.2108 17.3451 15.7374 17.2429V15.1972C16.1906 15.0977 16.5365 14.712 16.5759 14.239C17.4804 13.9026 18.2099 13.2076 18.5931 12.3271C20.1316 12.0203 21.3598 10.8013 21.6395 9.20385L21.8999 7.71634H18.8866V7.71631ZM16.66 20.1028C16.66 20.2478 16.5424 20.3653 16.3975 20.3653H14.2096C14.0647 20.3653 13.9472 20.2478 13.9472 20.1028V19.3614C13.9472 19.2165 14.0647 19.0989 14.2096 19.0989H16.3975C16.5424 19.0989 16.66 19.2165 16.66 19.3614V20.1028ZM9.60671 9.09194L9.47945 8.36505H11.7205V10.9137C11.7205 11.1483 11.7434 11.3776 11.7869 11.5995C10.6757 11.2422 9.81747 10.296 9.60671 9.09194ZM16.8481 10.1382L16.2944 10.678C16.2476 10.7235 16.2263 10.7892 16.2373 10.8536L16.368 11.6157C16.3958 11.7777 16.2258 11.9012 16.0803 11.8248L15.3959 11.4649C15.338 11.4345 15.269 11.4345 15.2113 11.4649L14.5268 11.8248C14.3813 11.9012 14.2113 11.7777 14.2391 11.6157L14.3698 10.8536C14.3809 10.7892 14.3595 10.7236 14.3128 10.678L13.759 10.1382C13.6413 10.0235 13.7063 9.82359 13.8689 9.79995L14.6342 9.68876C14.6988 9.67939 14.7546 9.63881 14.7835 9.58027L15.1258 8.8868C15.1985 8.73942 15.4087 8.73942 15.4814 8.8868L15.8237 9.58027C15.8526 9.63881 15.9084 9.67939 15.973 9.68876L16.7383 9.79995C16.9009 9.82359 16.9658 10.0235 16.8481 10.1382ZM21.0004 9.09194C20.7896 10.296 19.9314 11.2422 18.8201 11.5996C18.8636 11.3776 18.8866 11.1483 18.8866 10.9137V8.36505H21.1277L21.0004 9.09194Z" fill="#850000"/>
</svg>
