<svg width="30" height="29" viewBox="0 0 30 29" fill="none" xmlns="http://www.w3.org/2000/svg">
<path d="M15.3244 28.934C23.3064 28.934 29.777 22.4634 29.777 14.4815C29.777 6.49956 23.3064 0.0289307 15.3244 0.0289307C7.34251 0.0289307 0.871887 6.49956 0.871887 14.4815C0.871887 22.4634 7.34251 28.934 15.3244 28.934Z" fill="#FFC166" stroke="#FFE795" stroke-width="0.0110592" stroke-miterlimit="1.5" stroke-linecap="round" stroke-linejoin="round"/>
<path d="M19.2412 13.3132C19.2412 11.1645 17.4731 9.39636 15.3244 9.39636C13.1756 9.39636 11.4075 11.1645 11.4075 13.3132C11.406 13.7316 11.4732 14.1474 11.6064 14.544C11.8427 15.2557 12.279 15.8845 12.8629 16.355H17.7882C18.709 15.6151 19.2443 14.4945 19.2412 13.3132ZM17.1143 15.7817C17.0375 15.8377 16.945 15.868 16.8499 15.8683C16.7837 15.8683 16.7182 15.854 16.6581 15.8262L15.3173 15.2015L13.9907 15.8262C13.8418 15.8944 13.6673 15.8774 13.5344 15.7817C13.4014 15.6854 13.3312 15.5235 13.3519 15.3606L13.5297 13.8935L12.5259 12.8219C12.4138 12.7024 12.3759 12.5305 12.4277 12.375C12.4779 12.2194 12.6089 12.1028 12.7693 12.0708L14.2223 11.7877L14.9289 10.5031C15.0081 10.359 15.16 10.2691 15.3244 10.2691C15.4888 10.2691 15.6407 10.359 15.7198 10.5031L16.4381 11.7947L17.8794 12.0708C18.0398 12.1028 18.1708 12.2194 18.2211 12.375C18.2728 12.5305 18.235 12.7024 18.1228 12.8219L17.1167 13.9052L17.2992 15.3606C17.3178 15.5238 17.2471 15.685 17.1143 15.7817Z" fill="#633B00"/>
<path d="M9.63864 14.6889C9.78003 15.2821 10.0163 15.8486 10.3382 16.3665C10.3617 16.359 10.3862 16.3551 10.4108 16.3548H12.1703C11.3848 15.5387 10.9455 14.4489 10.9455 13.3161C10.9455 10.9122 12.9235 8.93419 15.3274 8.93419C17.7301 8.93419 19.7076 10.9104 19.7092 13.313C19.7134 14.4482 19.2721 15.5409 18.4808 16.3548H20.238C20.2637 16.3547 20.2891 16.3595 20.3129 16.3689C20.6673 15.7937 20.9183 15.161 21.0546 14.4993C21.1344 14.109 21.1744 13.7115 21.174 13.313C21.174 13.3121 21.174 13.3111 21.174 13.3101C21.174 10.1012 18.5334 7.46057 15.3244 7.46057C12.1154 7.46057 9.47485 10.1012 9.47485 13.3101C9.47485 13.7089 9.51562 14.1066 9.59652 14.497C9.60821 14.5602 9.62225 14.6257 9.63864 14.6889Z" fill="#633B00"/>
<path d="M10.1768 19.6306V18.2267H8.53892C8.4635 18.2264 8.39256 18.2631 8.34939 18.325C8.30514 18.3857 8.29291 18.4642 8.31663 18.5355L8.76119 19.8646L8.31663 21.1936C8.29291 21.2649 8.30514 21.3434 8.34939 21.4042C8.39256 21.466 8.4635 21.5028 8.53892 21.5024H12.7506C12.8788 21.5021 12.9842 21.3967 12.9846 21.2685V19.8646H10.4108C10.2826 19.8642 10.1772 19.7588 10.1768 19.6306Z" fill="#633B00"/>
<path d="M20.0041 16.8229H10.6448V19.3967H20.0041V16.8229Z" fill="#633B00"/>
<path d="M22.2994 18.3251C22.2562 18.2633 22.1853 18.2265 22.1098 18.2268H20.472V19.6307C20.4716 19.7589 20.3662 19.8643 20.238 19.8647H17.6642V21.2686C17.6645 21.3968 17.7699 21.5022 17.8982 21.5026H22.1098C22.1853 21.5029 22.2562 21.4661 22.2994 21.4043C22.3436 21.3436 22.3558 21.265 22.3321 21.1937L21.8876 19.8647L22.3321 18.5357C22.3558 18.4644 22.3436 18.3858 22.2994 18.3251Z" fill="#633B00"/>
<path d="M10.1768 17.7587V16.9024L10.13 16.9164L9.94047 16.6122C9.59296 16.0511 9.33705 15.4382 9.18236 14.7965C9.18003 14.7872 9.17769 14.7755 9.17534 14.7661C8.28231 15.4875 8.04469 16.7644 8.61846 17.7587H10.1768Z" fill="#633B00"/>
<path d="M20.5048 16.9492L20.472 16.9351V17.7587H22.0303C22.6041 16.7644 22.3665 15.4875 21.4735 14.7661C21.3219 15.4198 21.0642 16.0442 20.7107 16.6146L20.5048 16.9492Z" fill="#633B00"/>
</svg>
