<svg width="30" height="29" viewBox="0 0 30 29" fill="none" xmlns="http://www.w3.org/2000/svg">
<path d="M14.573 28.934C22.5549 28.934 29.0255 22.4634 29.0255 14.4815C29.0255 6.49956 22.5549 0.0289307 14.573 0.0289307C6.59105 0.0289307 0.120422 6.49956 0.120422 14.4815C0.120422 22.4634 6.59105 28.934 14.573 28.934Z" fill="#9F5DFF" stroke="#C295FF" stroke-width="0.0110592" stroke-miterlimit="1.5" stroke-linecap="round" stroke-linejoin="round"/>
<path d="M20.9818 8.36436L19.6118 7.99847C19.5755 7.98854 19.5379 7.98352 19.5002 7.98352C19.3083 7.98352 19.1391 8.11363 19.0899 8.2991L18.483 10.5654C19.0772 11.2344 19.4063 12.0985 19.4076 12.9933V13.9889L19.8813 14.1165L20.2358 12.7891L19.9607 12.7154C19.7753 12.6655 19.6455 12.4961 19.6455 12.3041C19.6455 12.0705 19.8377 11.8782 20.0713 11.8782C20.1087 11.8782 20.1459 11.8831 20.1819 11.8929L20.4571 11.9666L20.8116 10.6391L20.2103 10.4775C20.0237 10.4286 19.8927 10.2587 19.8927 10.0659C19.8927 9.83241 20.0848 9.64033 20.3182 9.64033C20.3555 9.64033 20.3927 9.64523 20.4287 9.65491L21.0329 9.8166L21.2824 8.88627C21.3419 8.66076 21.2067 8.42602 20.9818 8.36436Z" fill="#1F004C"/>
<path d="M18.5569 15.8304H18.5567V12.9933C18.5554 11.5975 17.5236 10.3998 16.1433 10.1919C16.1443 10.1804 16.1468 10.1694 16.1468 10.1576V9.30751C16.1468 9.30668 16.1468 9.30587 16.1468 9.30506C16.1468 8.2932 15.3141 7.46057 14.3023 7.46057C13.2904 7.46057 12.4578 8.2932 12.4578 9.30506C12.4578 9.30587 12.4578 9.30668 12.4578 9.30751V10.1576C12.4578 10.1693 12.4603 10.1804 12.4613 10.1919C11.0809 10.3997 10.0489 11.5974 10.0476 12.9933V15.8304C8.95846 15.8304 8.06229 16.7267 8.06229 17.8158V18.6676C8.06229 19.2895 8.57407 19.8013 9.19603 19.8013H10.0476C9.94906 20.6866 10.5417 21.5002 11.4658 21.5024H17.1386C18.0612 21.5006 18.6563 20.6862 18.5567 19.8013C18.5567 19.8014 19.4085 19.8012 19.4085 19.8013C20.0305 19.8013 20.5423 19.2895 20.5423 18.6675V17.8158C20.5423 16.7266 19.6461 15.8304 18.5569 15.8304ZM13.3087 9.30751C13.3432 7.99713 15.2617 7.99779 15.2959 9.30754V10.1569H13.3087V9.30751ZM12.1749 13.1351H16.4294C16.9875 13.1437 16.9898 13.977 16.4294 13.986H12.1749C11.6167 13.9775 11.6145 13.1441 12.1749 13.1351ZM17.2804 18.6689C17.2786 19.5235 16.575 20.2259 15.7204 20.2261H12.884C12.0293 20.2259 11.3257 19.5236 11.324 18.6689V16.6806C11.3255 15.8254 12.0287 15.1221 12.884 15.1206H15.7204C16.5756 15.1221 17.2788 15.8254 17.2804 16.6806V18.6689Z" fill="#1F004C"/>
<path d="M16.4294 17.6736H12.1749V18.6691C12.1762 19.0571 12.496 19.3756 12.884 19.3754H15.7203C15.8821 19.3747 16.0388 19.3183 16.1638 19.2156L16.1627 19.2194C16.1764 19.2084 16.1894 19.1967 16.2019 19.1843C16.2099 19.1768 16.2186 19.1701 16.2264 19.1623C16.2566 19.1334 16.2834 19.101 16.3062 19.0659C16.3074 19.0641 16.3087 19.0622 16.3099 19.0603C16.3253 19.0362 16.3391 19.0111 16.351 18.9851C16.4018 18.8875 16.4287 18.7792 16.4294 18.6692V18.6228C16.4371 18.4877 16.4309 18.3503 16.4294 18.2267L16.4294 17.6736Z" fill="#1F004C"/>
<path d="M15.7204 15.9715H12.884C12.4276 15.9676 12.1217 16.3863 12.1749 16.8224H16.4294C16.4826 16.3862 16.1766 15.9676 15.7204 15.9715Z" fill="#1F004C"/>
<path d="M9.19672 15.1093C9.20114 14.9393 9.18529 12.8146 9.20805 12.7097L7.8891 13.0614L8.52161 15.427C8.73164 15.2918 8.95865 15.1849 9.19672 15.1093Z" fill="#1F004C"/>
<path d="M8.52445 10.6902C8.47541 10.6293 8.40133 10.5939 8.32317 10.5939C8.19649 10.5939 8.08754 10.687 8.06783 10.8122L7.84943 12.1906L9.40376 11.7765L8.52445 10.6902Z" fill="#1F004C"/>
</svg>
