<svg width="30" height="29" viewBox="0 0 30 29" fill="none" xmlns="http://www.w3.org/2000/svg">
<path d="M15.0494 28.9374C23.0313 28.9374 29.5019 22.4668 29.5019 14.4849C29.5019 6.50297 23.0313 0.0323486 15.0494 0.0323486C7.06746 0.0323486 0.596832 6.50297 0.596832 14.4849C0.596832 22.4668 7.06746 28.9374 15.0494 28.9374Z" fill="#45FFAD" stroke="#95FFC6" stroke-width="0.0110592" stroke-miterlimit="1.5" stroke-linecap="round" stroke-linejoin="round"/>
<path d="M18.1612 17.9325L18.1594 17.9375C17.9825 18.4418 17.7624 19.0695 17.157 19.266C17.0497 19.3007 16.9377 19.3182 16.8249 19.3179C16.3858 19.3179 16.0104 19.0723 15.6488 18.8241L16.5509 21.8674C16.592 22.0061 16.7204 22.1019 16.865 22.1019C16.9783 22.1019 17.0839 22.0431 17.1435 21.9468L17.7908 20.9018C17.8624 20.7862 17.9987 20.7267 18.1321 20.7528L19.3385 20.9886C19.3592 20.9926 19.3803 20.9947 19.4014 20.9947C19.5811 20.9947 19.7289 20.8468 19.7289 20.6671C19.7289 20.6083 19.7131 20.5507 19.6831 20.5001L18.1612 17.9325Z" fill="#00532F"/>
<path d="M13.2736 19.3178C13.1609 19.318 13.0488 19.3005 12.9415 19.2659C12.3832 19.0846 12.1533 18.5375 11.9821 18.0577L10.5344 20.5C10.5044 20.5505 10.4886 20.6082 10.4886 20.667C10.4886 20.8467 10.6364 20.9946 10.8161 20.9946C10.8372 20.9946 10.8583 20.9925 10.879 20.9885L12.0854 20.7527C12.2188 20.7266 12.3551 20.7861 12.4267 20.9017L13.074 21.9467C13.1336 22.043 13.2391 22.1018 13.3524 22.1018C13.4971 22.1018 13.6254 22.006 13.6664 21.8673L14.5988 18.7221C14.5628 18.7465 14.5282 18.7702 14.4979 18.7911C14.1214 19.0501 13.7321 19.3178 13.2736 19.3178Z" fill="#00532F"/>
<path d="M21.2401 12.7785C21.2401 12.1714 20.0446 11.7608 19.8667 11.213C19.6823 10.6453 20.4018 9.61162 20.0579 9.13909C19.7105 8.66185 18.5028 9.02841 18.0256 8.68124C17.553 8.33728 17.5306 7.0737 16.9629 6.8893C16.4151 6.71141 15.6564 7.7147 15.0493 7.7147C14.4422 7.7147 13.6836 6.71143 13.1359 6.88932C12.5682 7.07362 12.5457 8.33728 12.0732 8.68122C11.5959 9.02851 10.3882 8.66186 10.0409 9.13908C9.69698 9.61157 10.4164 10.6453 10.2321 11.213C10.0542 11.7608 8.85861 12.1715 8.85861 12.7785C8.85861 13.3855 10.0542 13.7962 10.2322 14.344C10.4165 14.9116 9.69712 15.9454 10.041 16.4179C10.3883 16.8951 11.596 16.5286 12.0733 16.8757C12.5458 17.2197 12.5683 18.4833 13.136 18.6677C13.6838 18.8455 14.4425 17.8423 15.0496 17.8423C15.6567 17.8423 16.4153 18.8455 16.9631 18.6677C17.5307 18.4834 17.5532 17.2197 18.0258 16.8758C18.503 16.5285 19.7107 16.8951 20.0581 16.418C20.402 15.9454 19.6826 14.9117 19.8669 14.344C20.0445 13.7962 21.2401 13.3856 21.2401 12.7785ZM15.0509 16.0795C13.2401 16.0795 11.75 14.5894 11.75 12.7786C11.75 10.9677 13.2401 9.47763 15.0509 9.47763C16.8617 9.47763 18.3518 10.9677 18.3518 12.7785C18.3518 12.7785 18.3518 12.7785 18.3518 12.7785C18.3518 14.5894 16.8617 16.0795 15.0509 16.0795Z" fill="#00532F"/>
<path d="M16.5005 11.9833H15.8808C15.7355 11.9833 15.6057 11.8891 15.5608 11.7508L15.3693 11.1615C15.3244 11.0232 15.1947 10.929 15.0493 10.929C14.9039 10.929 14.7742 11.0232 14.7293 11.1615L14.5378 11.7508C14.4929 11.8891 14.3632 11.9833 14.2178 11.9833H13.5979C13.4134 11.9833 13.2615 12.1352 13.2615 12.3198C13.2615 12.4275 13.3132 12.5289 13.4003 12.5921L13.9017 12.9564C14.0193 13.0419 14.0688 13.1943 14.0239 13.3326L13.8324 13.9219C13.8215 13.9554 13.816 13.9904 13.816 14.0257C13.816 14.2103 13.9679 14.3622 14.1525 14.3622C14.2235 14.3622 14.2927 14.3397 14.3502 14.298L14.8516 13.9338C14.9692 13.8483 15.1295 13.8483 15.2472 13.9338L15.7484 14.298C15.8059 14.3397 15.8751 14.3622 15.9462 14.3622C16.1308 14.3622 16.2827 14.2103 16.2827 14.0257C16.2827 13.9904 16.2771 13.9553 16.2662 13.9218L16.0747 13.3324C16.0298 13.1942 16.0794 13.0417 16.197 12.9562L16.6983 12.592C16.7853 12.5287 16.837 12.4274 16.837 12.3198C16.837 12.1352 16.6851 11.9833 16.5005 11.9833Z" fill="#00532F"/>
</svg>
