<svg width="29" height="29" viewBox="0 0 29 29" fill="none" xmlns="http://www.w3.org/2000/svg">
<path d="M14.5396 28.9374C22.5215 28.9374 28.9922 22.4668 28.9922 14.4849C28.9922 6.50297 22.5215 0.0323486 14.5396 0.0323486C6.55771 0.0323486 0.0870819 6.50297 0.0870819 14.4849C0.0870819 22.4668 6.55771 28.9374 14.5396 28.9374Z" fill="#4C8AFF" stroke="#95C2FF" stroke-width="0.0110592" stroke-miterlimit="1.5" stroke-linecap="round" stroke-linejoin="round"/>
<path d="M20.7117 10.4195C20.6259 9.94749 20.3684 9.43257 19.9823 9.04638C19.5961 8.66019 19.1241 8.40274 18.6091 8.31691C18.0942 8.23109 17.5793 8.40274 17.236 8.74602C16.0345 10.1621 14.7472 11.5352 13.417 12.8654C13.3312 12.8654 13.2025 12.8654 13.1167 12.9083C12.945 12.9941 12.9021 13.1657 12.945 13.3374C11.6148 14.6676 10.2417 15.9549 8.78275 17.1993C8.43948 17.5426 8.31074 18.0146 8.35365 18.5724C8.43948 19.0444 8.69693 19.5593 9.08313 19.9455C9.46932 20.3317 9.94132 20.5892 10.4562 20.675H10.7137C11.1428 20.675 11.529 20.5033 11.8294 20.203C12.8592 19.0444 13.889 17.9288 14.9618 16.8131V18.3579C14.9618 18.6153 15.1334 18.787 15.3909 18.787C15.6483 18.787 15.82 18.6153 15.82 18.3579V16.2553C16.1204 16.6844 16.2491 17.2851 16.2491 18.1433V20.0742C16.2491 20.3317 16.4207 20.5033 16.6782 20.5033C16.9356 20.5033 17.1073 20.3317 17.1073 20.0742V18.1433C17.1073 17.328 17.0215 16.2553 16.292 15.4829C17.5793 14.1956 18.9095 12.9512 20.2826 11.7926C20.6259 11.4493 20.7975 10.9344 20.7117 10.4195ZM18.6091 12.093C17.5793 13.037 16.5495 13.981 15.5625 14.968C15.5196 14.968 15.4767 14.925 15.4338 14.925C14.9618 14.5389 14.3611 13.981 13.9749 13.509C14.9618 12.4792 15.9487 11.4493 16.8927 10.4195C17.0215 10.8057 17.236 11.1919 17.5364 11.4922C17.8797 11.7497 18.2229 12.0072 18.6091 12.093ZM11.1857 19.6451C10.9712 19.8597 10.7137 19.8168 10.5421 19.8168C10.2417 19.7739 9.89842 19.6022 9.64095 19.3448C9.3835 19.0873 9.21185 18.787 9.16894 18.4437C9.12603 18.272 9.12603 18.0146 9.29768 17.8429C10.6708 16.6414 12.0439 15.3971 13.3312 14.1098C13.8032 14.6676 14.404 15.2254 14.876 15.6116C13.6316 16.9418 12.3872 18.272 11.1857 19.6451Z" fill="#00205D"/>
</svg>
