<svg width="52" height="52" viewBox="0 0 52 52" fill="none" xmlns="http://www.w3.org/2000/svg">
<path opacity="0.3" d="M41.1667 28.1667H36.8333V15.1667H23.8333V10.8333C23.8333 10.2267 23.3567 9.75 22.75 9.75C22.1433 9.75 21.6667 10.2267 21.6667 10.8333V15.1667H8.66666L8.68832 19.76C12.48 21.2333 15.1667 24.9383 15.1667 29.25C15.1667 33.5617 12.4583 37.2667 8.66666 38.74V43.3333H13.26C14.7333 39.5417 18.4383 36.8333 22.75 36.8333C27.0617 36.8333 30.7667 39.5417 32.24 43.3333H36.8333V30.3333H41.1667C41.7733 30.3333 42.25 29.8567 42.25 29.25C42.25 28.6433 41.7733 28.1667 41.1667 28.1667Z" fill="#00ACA5"/>
<path d="M41.1667 23.8334V15.1667C41.1667 12.7834 39.2167 10.8334 36.8333 10.8334H28.1667C28.1667 7.84335 25.74 5.41669 22.75 5.41669C19.76 5.41669 17.3333 7.84335 17.3333 10.8334H8.66668C6.28334 10.8334 4.35501 12.7834 4.35501 15.1667V23.4H4.98334C8.21168 23.4 10.8333 26.0217 10.8333 29.25C10.8333 32.4784 8.21168 35.1 4.98334 35.1H4.33334V43.3334C4.33334 45.7167 6.28334 47.6667 8.66668 47.6667H16.9V47.0167C16.9 43.7884 19.5217 41.1667 22.75 41.1667C25.9783 41.1667 28.6 43.7884 28.6 47.0167V47.6667H36.8333C39.2167 47.6667 41.1667 45.7167 41.1667 43.3334V34.6667C44.1567 34.6667 46.5833 32.24 46.5833 29.25C46.5833 26.26 44.1567 23.8334 41.1667 23.8334ZM41.1667 30.3334H36.8333V43.3334H32.24C30.7667 39.5417 27.0617 36.8334 22.75 36.8334C18.4383 36.8334 14.7333 39.5417 13.26 43.3334H8.66668V38.74C12.4583 37.2667 15.1667 33.5617 15.1667 29.25C15.1667 24.9384 12.48 21.2334 8.68834 19.76L8.66668 15.1667H21.6667V10.8334C21.6667 10.2267 22.1433 9.75002 22.75 9.75002C23.3567 9.75002 23.8333 10.2267 23.8333 10.8334V15.1667H36.8333V28.1667H41.1667C41.7733 28.1667 42.25 28.6434 42.25 29.25C42.25 29.8567 41.7733 30.3334 41.1667 30.3334Z" fill="#007EF2"/>
</svg>
