<svg width="52" height="52" viewBox="0 0 52 52" fill="none" xmlns="http://www.w3.org/2000/svg">
<path d="M15.1667 10.8334H36.8333V15.1667H41.1667V6.50002C41.1667 4.11669 39.2167 2.18835 36.8333 2.18835L15.1667 2.16669C12.7833 2.16669 10.8333 4.11669 10.8333 6.50002V15.1667H15.1667V10.8334ZM33.3883 35.945L43.3333 26L33.3883 16.055L30.3333 19.1317L37.2017 26L30.3333 32.8684L33.3883 35.945ZM21.6667 32.8684L14.7983 26L21.6667 19.1317L18.6117 16.055L8.66666 26L18.6117 35.945L21.6667 32.8684ZM36.8333 41.1667H15.1667V36.8334H10.8333V45.5C10.8333 47.8834 12.7833 49.8334 15.1667 49.8334H36.8333C39.2167 49.8334 41.1667 47.8834 41.1667 45.5V36.8334H36.8333V41.1667Z" fill="#007EF2"/>
</svg>
