<svg width="52" height="52" viewBox="0 0 52 52" fill="none" xmlns="http://www.w3.org/2000/svg">
<path opacity="0.3" d="M15.1667 26.585V34.645L26 40.56L36.8333 34.645V26.585L26 32.5L15.1667 26.585ZM11.2233 19.5L26 27.56L40.7767 19.5L26 11.44L11.2233 19.5Z" fill="#00ACA5"/>
<path d="M26 6.5L2.16666 19.5L10.8333 24.2233V37.2233L26 45.5L41.1667 37.2233V24.2233L45.5 21.8617V36.8333H49.8333V19.5L26 6.5ZM36.8333 34.645L26 40.56L15.1667 34.645V26.585L26 32.5L36.8333 26.585V34.645ZM26 27.56L11.2233 19.5L26 11.44L40.7767 19.5L26 27.56Z" fill="#007EF2"/>
</svg>
