<svg width="48" height="42" viewBox="0 0 48 42" fill="none" xmlns="http://www.w3.org/2000/svg">
<path opacity="0.3" d="M31.28 11.5H5.88666L4.58666 18H32.58L31.28 11.5Z" fill="#00ACA5"/>
<path d="M34.8333 0.666687H2.33333V5.00002H34.8333V0.666687Z" fill="#007EF2"/>
<path d="M30.5 28.8334H34.8333V22.3334H37V18L34.8333 7.16669H2.33333L0.166664 18V22.3334H2.33333V35.3334H21.8333V22.3334H30.5V28.8334ZM17.5 31H6.66666V22.3334H17.5V31ZM4.58666 18L5.88666 11.5H31.28L32.58 18H4.58666Z" fill="#007EF2"/>
<path d="M41.3333 31V24.5H37V31H30.5V35.3333H37V41.8333H41.3333V35.3333H47.8333V31H41.3333Z" fill="#007EF2"/>
</svg>
