<svg width="52" height="52" viewBox="0 0 52 52" fill="none" xmlns="http://www.w3.org/2000/svg">
<path opacity="0.3" d="M26 8.66669C16.445 8.66669 8.66667 16.445 8.66667 26C8.66667 35.555 16.445 43.3334 26 43.3334C26.6067 43.3334 27.0833 42.8567 27.0833 42.25C27.0833 41.9034 26.91 41.6434 26.78 41.4917C25.8917 40.495 25.415 39.2167 25.415 37.9167C25.415 34.9267 27.8417 32.5 30.8317 32.5H34.6667C39.455 32.5 43.3333 28.6217 43.3333 23.8334C43.3333 15.47 35.555 8.66669 26 8.66669ZM14.0833 28.1667C12.285 28.1667 10.8333 26.715 10.8333 24.9167C10.8333 23.1184 12.285 21.6667 14.0833 21.6667C15.8817 21.6667 17.3333 23.1184 17.3333 24.9167C17.3333 26.715 15.8817 28.1667 14.0833 28.1667ZM20.5833 19.5C18.785 19.5 17.3333 18.0484 17.3333 16.25C17.3333 14.4517 18.785 13 20.5833 13C22.3817 13 23.8333 14.4517 23.8333 16.25C23.8333 18.0484 22.3817 19.5 20.5833 19.5ZM31.4167 19.5C29.6183 19.5 28.1667 18.0484 28.1667 16.25C28.1667 14.4517 29.6183 13 31.4167 13C33.215 13 34.6667 14.4517 34.6667 16.25C34.6667 18.0484 33.215 19.5 31.4167 19.5ZM41.1667 24.9167C41.1667 26.715 39.715 28.1667 37.9167 28.1667C36.1183 28.1667 34.6667 26.715 34.6667 24.9167C34.6667 23.1184 36.1183 21.6667 37.9167 21.6667C39.715 21.6667 41.1667 23.1184 41.1667 24.9167Z" fill="#00ACA5"/>
<path d="M26 4.33331C14.0617 4.33331 4.33333 14.0616 4.33333 26C4.33333 37.9383 14.0617 47.6666 26 47.6666C28.99 47.6666 31.4167 45.24 31.4167 42.25C31.4167 40.9283 30.9183 39.6283 30.03 38.6316C29.8567 38.4366 29.7483 38.1766 29.7483 37.9166C29.7483 37.31 30.225 36.8333 30.8317 36.8333H34.6667C41.8383 36.8333 47.6667 31.005 47.6667 23.8333C47.6667 13.0866 37.9383 4.33331 26 4.33331ZM34.6667 32.5H30.8317C27.8417 32.5 25.415 34.9266 25.415 37.9166C25.415 39.2383 25.8917 40.495 26.78 41.4916C26.91 41.6433 27.0833 41.9033 27.0833 42.25C27.0833 42.8566 26.6067 43.3333 26 43.3333C16.445 43.3333 8.66666 35.555 8.66666 26C8.66666 16.445 16.445 8.66665 26 8.66665C35.555 8.66665 43.3333 15.47 43.3333 23.8333C43.3333 28.6216 39.455 32.5 34.6667 32.5Z" fill="#007EF2"/>
<path d="M14.0833 28.1667C15.8783 28.1667 17.3333 26.7116 17.3333 24.9167C17.3333 23.1218 15.8783 21.6667 14.0833 21.6667C12.2884 21.6667 10.8333 23.1218 10.8333 24.9167C10.8333 26.7116 12.2884 28.1667 14.0833 28.1667Z" fill="#007EF2"/>
<path d="M20.5833 19.5C22.3783 19.5 23.8333 18.0449 23.8333 16.25C23.8333 14.4551 22.3783 13 20.5833 13C18.7884 13 17.3333 14.4551 17.3333 16.25C17.3333 18.0449 18.7884 19.5 20.5833 19.5Z" fill="#007EF2"/>
<path d="M31.4167 19.5C33.2116 19.5 34.6667 18.0449 34.6667 16.25C34.6667 14.4551 33.2116 13 31.4167 13C29.6217 13 28.1667 14.4551 28.1667 16.25C28.1667 18.0449 29.6217 19.5 31.4167 19.5Z" fill="#007EF2"/>
<path d="M37.9167 28.1667C39.7116 28.1667 41.1667 26.7116 41.1667 24.9167C41.1667 23.1218 39.7116 21.6667 37.9167 21.6667C36.1217 21.6667 34.6667 23.1218 34.6667 24.9167C34.6667 26.7116 36.1217 28.1667 37.9167 28.1667Z" fill="#007EF2"/>
</svg>
