<svg width="21" height="14" viewBox="0 0 21 14" fill="none" xmlns="http://www.w3.org/2000/svg">
<path d="M10.5566 0.477661C6.15801 0.477661 2.40161 3.21359 0.8797 7.07555C2.40161 10.9375 6.15801 13.6734 10.5566 13.6734C14.9552 13.6734 18.7116 10.9375 20.2335 7.07555C18.7116 3.21359 14.9552 0.477661 10.5566 0.477661ZM10.5566 11.914C7.22248 11.914 4.24902 10.0402 2.79749 7.07555C4.24902 4.1109 7.22248 2.2371 10.5566 2.2371C13.8907 2.2371 16.8642 4.1109 18.3157 7.07555C16.8642 10.0402 13.8907 11.914 10.5566 11.914ZM10.5566 3.11682C8.37491 3.11682 6.59787 4.89385 6.59787 7.07555C6.59787 9.25726 8.37491 11.0343 10.5566 11.0343C12.7383 11.0343 14.5153 9.25726 14.5153 7.07555C14.5153 4.89385 12.7383 3.11682 10.5566 3.11682ZM10.5566 9.27485C9.3426 9.27485 8.35731 8.28957 8.35731 7.07555C8.35731 5.86154 9.3426 4.87626 10.5566 4.87626C11.7706 4.87626 12.7559 5.86154 12.7559 7.07555C12.7559 8.28957 11.7706 9.27485 10.5566 9.27485Z" fill="#007EF2"/>
</svg>
