<svg width="28" height="28" viewBox="0 0 28 28" fill="none" xmlns="http://www.w3.org/2000/svg">
<path d="M11.3333 20L19.3333 14L11.3333 7.99996V20ZM14 0.666626C6.63999 0.666626 0.666656 6.63996 0.666656 14C0.666656 21.36 6.63999 27.3333 14 27.3333C21.36 27.3333 27.3333 21.36 27.3333 14C27.3333 6.63996 21.36 0.666626 14 0.666626ZM14 24.6666C8.11999 24.6666 3.33332 19.88 3.33332 14C3.33332 8.11996 8.11999 3.33329 14 3.33329C19.88 3.33329 24.6667 8.11996 24.6667 14C24.6667 19.88 19.88 24.6666 14 24.6666Z" fill="#F6F8FF"/>
</svg>
