<svg width="23" height="22" viewBox="0 0 23 22" fill="none" xmlns="http://www.w3.org/2000/svg">
<path d="M11.0647 1.28689C11.1963 0.881836 11.7693 0.881834 11.9009 1.28689L13.7531 6.98727C13.812 7.16842 13.9808 7.29107 14.1712 7.29107L20.165 7.29107C20.5909 7.29107 20.768 7.83607 20.4234 8.08641L15.5744 11.6094C15.4203 11.7214 15.3558 11.9198 15.4146 12.101L17.2668 17.8014C17.3984 18.2064 16.9348 18.5433 16.5902 18.2929L11.7412 14.7699C11.5871 14.6579 11.3785 14.6579 11.2244 14.7699L6.37534 18.2929C6.03077 18.5433 5.56717 18.2064 5.69878 17.8014L7.55094 12.101C7.6098 11.9198 7.54532 11.7214 7.39123 11.6094L2.5422 8.08641C2.19763 7.83607 2.37471 7.29107 2.80062 7.29107L8.79435 7.29107C8.98482 7.29107 9.15363 7.16842 9.21249 6.98727L11.0647 1.28689Z" fill="#818181"/>
<g clip-path="url(#clip0_32_197)">
<path d="M11.1336 1.28689C11.2652 0.881836 11.8383 0.881834 11.9699 1.28689L13.822 6.98727C13.8809 7.16842 14.0497 7.29107 14.2402 7.29107L20.2339 7.29107C20.6598 7.29107 20.8369 7.83607 20.4923 8.08641L15.6433 11.6094C15.4892 11.7214 15.4247 11.9198 15.4836 12.101L17.3357 17.8014C17.4674 18.2064 17.0038 18.5433 16.6592 18.2929L11.8102 14.7699C11.6561 14.6579 11.4474 14.6579 11.2933 14.7699L6.44428 18.2929C6.09971 18.5433 5.6361 18.2064 5.76772 17.8014L7.61988 12.101C7.67874 11.9198 7.61426 11.7214 7.46017 11.6094L2.61114 8.08641C2.26657 7.83607 2.44365 7.29107 2.86956 7.29107L8.86329 7.29107C9.05376 7.29107 9.22257 7.16842 9.28143 6.98727L11.1336 1.28689Z" fill="#FFE55F"/>
</g>
<defs>
<clipPath id="clip0_32_197">
<rect width="11" height="21" fill="white" transform="translate(1)"/>
</clipPath>
</defs>
</svg>
