<svg width="21" height="20" viewBox="0 0 21 20" fill="none" xmlns="http://www.w3.org/2000/svg">
<path d="M11.0628 13.0821H15.0821V10.0676L20.1063 14.5893L15.0821 19.1111V16.0966H11.0628V13.0821ZM18.0966 0.0192871H2.01934C1.48634 0.0192871 0.975175 0.231019 0.59829 0.607903C0.221406 0.984788 0.00967407 1.49595 0.00967407 2.02895V14.0869C0.00967407 14.6199 0.221406 15.1311 0.59829 15.508C0.975175 15.8849 1.48634 16.0966 2.01934 16.0966H9.40484C9.17036 15.4526 9.05131 14.7723 9.05315 14.0869C9.05458 12.7923 9.47268 11.5326 10.2456 10.494C11.0185 9.45549 12.1052 8.69333 13.3449 8.3203C14.5846 7.94726 15.9114 7.98318 17.1291 8.42272C18.3468 8.86227 19.3907 9.6821 20.1063 10.7609V2.02895C20.1063 1.49595 19.8946 0.984788 19.5177 0.607903C19.1408 0.231019 18.6296 0.0192871 18.0966 0.0192871ZM18.0966 4.03861L10.058 9.06277L2.01934 4.03861V2.02895L10.058 7.0531L18.0966 2.02895V4.03861Z" fill="#F0F3FA"/>
</svg>
