<svg width="21" height="11" viewBox="0 0 21 11" fill="none" xmlns="http://www.w3.org/2000/svg">
<path d="M3.5 6.375C4.4625 6.375 5.25 5.5875 5.25 4.625C5.25 3.6625 4.4625 2.875 3.5 2.875C2.5375 2.875 1.75 3.6625 1.75 4.625C1.75 5.5875 2.5375 6.375 3.5 6.375ZM4.48875 7.3375C4.165 7.285 3.84125 7.25 3.5 7.25C2.63375 7.25 1.81125 7.43375 1.0675 7.7575C0.42 8.0375 0 8.6675 0 9.37625V10.75H3.9375V9.34125C3.9375 8.615 4.13875 7.9325 4.48875 7.3375ZM17.5 6.375C18.4625 6.375 19.25 5.5875 19.25 4.625C19.25 3.6625 18.4625 2.875 17.5 2.875C16.5375 2.875 15.75 3.6625 15.75 4.625C15.75 5.5875 16.5375 6.375 17.5 6.375ZM21 9.37625C21 8.6675 20.58 8.0375 19.9325 7.7575C19.1888 7.43375 18.3662 7.25 17.5 7.25C17.1588 7.25 16.835 7.285 16.5113 7.3375C16.8612 7.9325 17.0625 8.615 17.0625 9.34125V10.75H21V9.37625ZM14.21 6.94375C13.1862 6.48875 11.9263 6.15625 10.5 6.15625C9.07375 6.15625 7.81375 6.4975 6.79 6.94375C5.845 7.36375 5.25 8.30875 5.25 9.34125V10.75H15.75V9.34125C15.75 8.30875 15.155 7.36375 14.21 6.94375ZM7.06125 9C7.14 8.79875 7.175 8.65875 7.8575 8.39625C8.70625 8.06375 9.59875 7.90625 10.5 7.90625C11.4012 7.90625 12.2938 8.06375 13.1425 8.39625C13.8163 8.65875 13.8513 8.79875 13.9388 9H7.06125ZM10.5 2C10.9812 2 11.375 2.39375 11.375 2.875C11.375 3.35625 10.9812 3.75 10.5 3.75C10.0188 3.75 9.625 3.35625 9.625 2.875C9.625 2.39375 10.0188 2 10.5 2ZM10.5 0.25C9.0475 0.25 7.875 1.4225 7.875 2.875C7.875 4.3275 9.0475 5.5 10.5 5.5C11.9525 5.5 13.125 4.3275 13.125 2.875C13.125 1.4225 11.9525 0.25 10.5 0.25Z" fill="#007EF2"/>
</svg>
